<?xml version="1.0" encoding="UTF-8"?>
<!DOCTYPE svg PUBLIC "-//W3C//DTD SVG 1.1//EN" "http://www.w3.org/Graphics/SVG/1.1/DTD/svg11.dtd">
<!-- Creator: CorelDRAW 2021.5 (Evaluation Version) -->
<svg xmlns="http://www.w3.org/2000/svg" xml:space="preserve" width="100%" height="100%" version="1.1" style="shape-rendering:geometricPrecision; text-rendering:geometricPrecision; image-rendering:optimizeQuality; fill-rule:evenodd; clip-rule:evenodd"
viewBox="0 0 8500 11000"
 xmlns:xlink="http://www.w3.org/1999/xlink"
 xmlns:xodm="http://www.corel.com/coreldraw/odm/2003">
 <defs>
  <style type="text/css">
   <![CDATA[
    .str0 {stroke:#1A1A1A;stroke-width:41.67;stroke-miterlimit:2.61313}
    .fil0 {fill:#1A1A1A}
   ]]>
  </style>
 </defs>
 <g id="Layer_x0020_1">
  <metadata id="CorelCorpID_0Corel-Layer"/>
  <rect class="fil0 str0" x="1521.25" y="4608.03" width="245.85" height="1410.98"/>
  <rect class="fil0 str0" x="1767.11" y="4956.53" width="235.17" height="1475.11"/>
  <rect class="fil0 str0" x="2002.27" y="5217.31" width="245.85" height="1571.32"/>
  <rect class="fil0 str0" x="2248.12" y="5503.14" width="245.85" height="1582"/>
  <rect class="fil0 str0" x="2493.97" y="5503.15" width="256.55" height="1892"/>
  <rect class="fil0 str0" x="2744.4" y="5205.6" width="238.96" height="3092.56"/>
  <rect class="fil0 str0" x="2983.37" y="8059.18" width="238.97" height="238.97"/>
  <rect class="fil0 str0" x="2983.18" y="4938.51" width="315.78" height="2846.56"/>
  <rect class="fil0 str0" x="3297.15" y="4650.87" width="328.77" height="2874.76"/>
  <rect class="fil0 str0" x="3623.06" y="4399.95" width="238.37" height="2866.56"/>
  <rect class="fil0 str0" x="3862.11" y="2939.26" width="308.27" height="4580.04"/>
  <rect class="fil0 str0" x="4171.63" y="2595.75" width="255.43" height="5689.82"/>
  <rect class="fil0 str0" x="4427.05" y="2595.75" width="264.43" height="4382.08"/>
  <rect class="fil0 str0" x="4691.48" y="2595.76" width="293.74" height="4088.34"/>
  <rect class="fil0 str0" x="4985.23" y="2595.76" width="303.87" height="3581.89"/>
  <rect class="fil0 str0" x="5289.09" y="2595.76" width="334.26" height="1799.17"/>
  <rect class="fil0 str0" x="5623.36" y="2595.76" width="787.14" height="1333.23"/>
  <rect class="fil0 str0" x="6403.92" y="2933.94" width="324.13" height="992.65"/>
  <rect class="fil0 str0" x="5623.36" y="4146.51" width="570.54" height="249.6"/>
  <rect class="fil0 str0" x="4427.06" y="8056.64" width="238.78" height="231.67"/>
  <rect class="fil0 str0" x="5289.1" y="5222.78" width="623.01" height="293.76"/>
  <rect class="fil0 str0" x="5620.79" y="5516.54" width="291.32" height="305.76"/>
 </g>
</svg>
