<?xml version="1.0" encoding="UTF-8"?>
<!DOCTYPE svg PUBLIC "-//W3C//DTD SVG 1.1//EN" "http://www.w3.org/Graphics/SVG/1.1/DTD/svg11.dtd">
<!-- Creator: CorelDRAW 2021.5 (Evaluation Version) -->
<svg xmlns="http://www.w3.org/2000/svg" xml:space="preserve" width="100%" height="100%" version="1.1" style="shape-rendering:geometricPrecision; text-rendering:geometricPrecision; image-rendering:optimizeQuality; fill-rule:evenodd; clip-rule:evenodd"
viewBox="0 0 11000 8500"
 xmlns:xlink="http://www.w3.org/1999/xlink"
 xmlns:xodm="http://www.corel.com/coreldraw/odm/2003">
 <defs>
  <style type="text/css">
   <![CDATA[
    .fil1 {fill:none}
    .fil0 {fill:#D550E6}
    .fil2 {fill:#E26AF2}
   ]]>
  </style>
 </defs>
 <g id="Layer_x0020_1">
  <metadata id="CorelCorpID_0Corel-Layer"/>
  <g id="_3121693591840">
   <path class="fil0" d="M4737.14 6014.37c-182.93,260.2 -442.92,292.55 -747.28,246.82 -138.31,-20.78 -75.63,-34.12 -125.55,-22.22 -23.43,-19.32 -11.46,-6.41 -31.08,-42.75l0 -0.01c10.65,-39.91 2,-24.56 20.31,-48.8l-10.46 2.5 90.05 -90.38c76.91,-61.54 391.95,-181.49 354.19,-263.46 60.28,-124.22 209.84,-176.05 334.06,-115.77 124.22,60.28 176.05,209.84 115.77,334.06z"/>
  </g>
  <path class="fil1" d="M4512.23 5905.22c-98.14,202.24 -379.81,187.83 -653.3,287.97l-25.7 3.02"/>
  <path class="fil1" d="M3833.24 5905.22c98.14,202.24 379.81,187.83 653.3,287.97l25.7 3.02"/>
  <g id="_3121693590640">
   <path class="fil0" d="M6061.72 5720.4c197.2,261.85 285.22,230.1 413.13,377.67l58.43 85.83c-6.8,16.07 -26.91,1.07 -53.31,20.96 -2.18,0.46 -5.79,1.77 -0.34,0.26 -0.95,0.72 -1.91,1.49 -2.87,2.31 5.79,-2.74 4.98,-2.93 3.21,-2.56l-0.34 0.26c3.74,-1.04 11.72,-3.39 27.36,-8.26l66.33 77.78 -7.25 17.07 -0.57 0.23 -0.71 -1.83c-2.05,-0.46 -45.51,10 -62.1,14.03l15.18 17.8c38.48,-11.95 15.26,-5.54 29.58,-10.16 -56.35,43.08 -126.56,-5.11 -199.73,-16.06 -334.73,-50.1 -303.29,0.11 -633.71,-216.01 -99.22,-96.02 -101.81,-254.29 -5.79,-353.5 96.02,-99.22 254.29,-101.81 353.5,-5.79zm395.73 530.7c0.17,-5.48 0.76,-12.8 1.12,-23.54l-7.01 16.63 5.89 6.91z"/>
  </g>
  <path class="fil1" d="M5887.86 5900.04c277.64,268.7 410.12,186 588.55,346.93 46.41,41.85 42.14,-27.78 19.9,58.7"/>
  <ellipse class="fil2" cx="5258.1" cy="4204.01" rx="1776.1" ry="2152.31"/>
  <g id="_3121693592416">
   <path class="fil2" d="M5208.86 6302.04l-0.13 0.03c185.83,2.69 176.58,-184.11 269.69,-112.34 239.24,184.41 163.76,59.86 259.33,-26.77 45.79,-41.5 261.14,-4.15 289.51,-139.4 38.73,-184.64 168.23,-175.5 288.88,-212.38 -39.4,-151.28 176.17,-199.75 284.7,-254.97 -1.67,-3.08 -3.6,-6.58 -5.86,-10.59 -156.58,-277.24 140.81,-318.28 217.99,-355.17l-8.48 -18.78c-135.84,-266.72 -193.6,-395.9 70.6,-586.54 -21.98,-48.61 -44.72,-78.81 -72.17,-130.11 -134.51,-251.39 -38.29,-291.7 30.69,-378.56 -28.09,-25.77 -56.45,-56.17 -56.45,-56.17 -94.42,-123.09 -14.01,-220.04 52.14,-296.48 -62.44,-35.58 -120.09,-71.14 -157.87,-145.58 -68.91,-135.79 -12.34,-207.53 34.53,-285.88 -106.43,-63.26 -245.8,-95.96 -319.31,-208.49 -80.5,-123.22 -36.35,-189.04 0.23,-274.52l-8.67 -3.61c-161.56,-67.36 -249.9,-137.06 -252.26,-270.23 -112.71,31.81 -247.59,51.86 -342.67,-3.61 -88.17,-51.43 -116.43,-109.33 -123.89,-170.83 -163.52,56.63 -289.65,-8.81 -415.91,-151.22 -85.3,23.62 -168.52,20.75 -277.98,1.01 -88.57,90.04 -174.22,139.88 -283.96,135.23 -19.11,52.98 -43.61,87.39 -104,154.17l4.45 -9.59c-66.3,90.08 -160.99,67.89 -287.32,63.78 -17.72,55.33 -31.25,81.39 -93.2,172 -107.67,157.47 -59.66,73.41 -164.23,259.59 -143.83,256.08 -162.33,191.83 -289.82,269.63 -2.84,222.34 127.65,600.89 -185.86,693.1 7.22,49.96 31.63,117.33 40.26,141.85 81.56,231.5 230.62,384.67 49.16,540.05 61.65,112.52 377.63,328.54 133.18,549.12 84.53,135.09 274.35,202.17 279.57,376.64 5.86,195.78 400.28,144.98 345.26,320.33 48,93.13 174.08,121.19 257.83,161.92 131.59,64 139.78,139.6 213.42,230.44l-0.18 0.74c42.11,-13.09 174.38,-58.41 216.55,-39.37 30.95,13.98 -1.68,22.27 112.28,71.56zm-12.49 3.02l-0.88 0.21c0.6,0.42 1.19,0.8 1.77,1.14 -0.26,-0.48 -0.55,-0.93 -0.89,-1.35zm-22.68 5.11c-97.96,20.76 -58.39,-7.97 -103.4,-24.96 2.02,2.29 2.32,2.36 4.91,3.9l0.06 0.55c-220.93,68.33 -179.44,158.74 -341.39,-29.36 -126.81,-147.29 -435.11,-137.94 -496.17,-345.48 -201.23,-55.34 -364.94,-132.1 -388.03,-364.73 0.03,1.12 1.5,13.53 1.07,16.03 -121.49,-152.09 -473.98,-289.08 -238.89,-566.24 -33.37,-33.85 -193.27,-217.61 -210.13,-249.1 -64.14,-119.8 -43.06,-216.67 29.27,-299.6 -104.36,-243.57 -365.18,-690.61 6.01,-802.63l-5.3 -138.37c-41.88,-347.06 -107.14,-441.79 237.24,-614.55 7.7,-3.87 146.35,-281.25 163.57,-307.57 130.42,-199.39 57.95,-96.11 131.12,-273.13 57.92,-140.14 213.21,-157.96 353.45,-157.44 38.39,-130.21 78.99,-270.12 280.8,-250.65 24.87,2.4 45.45,8.41 66.52,15.19 176.13,-182.27 188.25,-132.78 433.83,-126.92 112.69,2.69 204.11,-199.55 454.4,98.81 4.25,5.07 9.18,11.38 14.56,17.97 254.9,-129.91 475.12,-41.26 519.9,196.31 131.68,-29.38 226.73,-46.81 396.44,106.09 103.28,93.05 91.72,163.57 74.61,232.72 156.7,83.87 296.41,192.41 230.83,415.19 -4.68,15.89 -8.93,28.93 -13.11,40.28 155.8,85.94 454.65,237.45 274.56,530.28 59.53,42.66 132.97,118.7 152.46,167.6 42.41,106.41 3.53,215.4 -65.68,299.67 104.36,127.82 61.43,252 -66.17,389.06 58,150.3 247.7,375.16 -17.99,535.53 -67.28,40.61 -26.61,15.16 -73.97,52.73 -6.07,62.67 321.8,485.69 -152.71,585.99 32.21,67.72 71.67,156.92 -25.67,241.32 -90.38,78.37 -168.96,84.15 -262.78,120.23 20.5,227.63 -307.28,160.38 -331.14,231.2 -57.44,170.52 -213.24,246.06 -383.97,233.99 -69.02,84.31 -122.29,170.89 -266.2,95.45 -51.44,-26.96 -86.25,-62.56 -123.94,-102.41 -65.98,47.02 -111.85,114.92 -246.51,53.64 -7.09,-2.69 -11.38,-10.15 -16.96,-23.01 1.73,-1.33 3.22,-2.52 4.52,-3.6zm-1553.95 -1319.35c2.12,-2.17 1.88,-1.56 2.41,-4.34 -1,1.57 -1.79,3 -2.41,4.34zm-150.58 -1350.69c3.79,-0.87 7.49,-1.78 11.39,-2.59 -4.04,0.5 -7.82,1.38 -11.39,2.59zm1226.09 -1708.19l3.69 1.11c-1.19,-0.44 -2.42,-0.81 -3.69,-1.11zm2007.85 925.03c-1.42,-1.43 -2.89,-2.83 -4.42,-4.19 1.31,1.37 2.81,2.77 4.42,4.19zm-178.08 2904.31c-0.65,-2.46 -1.4,-4.95 -2.24,-7.5 0.81,2.55 1.5,5.01 2.24,7.5zm300.52 -578.43c0.93,-0.79 1.78,-1.59 2.46,-2.39 -0.91,0.72 -1.72,1.53 -2.46,2.39zm74.34 -615.12c3.22,-2.2 6.43,-4.41 9.73,-6.63 -3.51,0.4 -6.78,2.92 -9.73,6.63zm-170.46 -1318.47c0.83,-1.78 1.66,-3.56 2.46,-5.35 -0.95,1.77 -1.77,3.56 -2.46,5.35zm-325.53 -484.54l1 -3.12c-0.39,1.03 -0.72,2.07 -1,3.12zm-1004.05 -624.78c2.8,-1.63 5.63,-3.31 8.46,-5.07 -2.84,1.72 -5.66,3.41 -8.46,5.07zm-1075.41 318.24c3.36,-9.17 6.44,-18.9 9.43,-29.22 -3.41,10.4 -6.54,20.11 -9.43,29.22zm-764.82 1461.41c0.7,-2.56 0.98,-5.2 0.72,-7.92 -0.37,2.47 -0.6,5.12 -0.72,7.92zm219.33 1251.57c-0.19,-0.74 -0.43,-1.53 -0.73,-2.38l-0.24 0.74 0.96 1.64zm627.51 700.46c-0.35,-1.43 -0.92,-2.73 -1.77,-3.84 0.57,1.29 1.17,2.57 1.77,3.84zm472.26 398.67c-2.13,-0.08 -2.56,-0.09 -5.19,0.99l0.12 0.54c1.47,-0.43 3.17,-0.94 5.07,-1.53z"/>
  </g>
  <path class="fil1" d="M5208.86 6302.04c-212.11,0 3.02,-109.45 -317.45,15.37 -84.65,32.97 -98.57,-198.8 -329.8,-238.09 -24.97,-4.24 -287.31,-138.55 -236.07,-230.03 7.35,-13.12 -375.59,-71.16 -368.85,-296.04 3.83,-127.94 -438.91,-299.07 -254.97,-467.36 208.17,-190.46 -412.72,-388.27 -114.64,-585.02 62.11,-41 -372.72,-669.93 -88.18,-702.43 233.17,-26.63 4.59,-573.31 97.76,-653.3 180.22,-154.71 153.35,20.82 338.11,-366.08 52.31,-109.55 174.19,-194.73 207.1,-383.46 10.24,-58.72 221.99,-35.27 291,-35.27 0.17,-1.43 56.05,-35.2 76.34,-147.14 45.81,-252.74 139.45,74.35 330.05,-174.6 90.22,-117.83 257.37,50.16 442.42,-81.63 73.4,-52.28 166.87,330.42 388,149.91 44.37,-36.22 255.1,-98.96 202.82,158.72 -40.33,198.82 279.18,-13.42 379.18,44.09 191.7,110.24 72.98,70.51 85.16,235.82 5.83,79.13 404.19,72.93 214.66,361.54 -108.81,165.7 537.29,194.83 314.43,467.36 -197.85,241.95 408.37,175.71 80.12,471.89 -156.24,140.98 269.85,92.93 -26.45,365.83 -105.98,97.61 250.06,378.21 61.73,480.72 -405.47,220.69 192.19,474.93 -123.46,624.57 -91.13,43.2 -261.05,8.43 -134.54,203.57 108.56,167.45 -337.56,177.2 -300.57,271.85 73.47,188.02 -266.64,49.9 -305.61,245.4 -18.04,90.47 -177.51,208.99 -316.7,174.85 -46.33,-11.36 -69.61,297.76 -351.22,16.13 -33.5,-33.5 -71.09,137.35 -247.66,92.72 -42.86,-10.83 13.91,5 24.94,6.55"/>
 </g>
</svg>
