<?xml version="1.0" encoding="UTF-8"?>
<!DOCTYPE svg PUBLIC "-//W3C//DTD SVG 1.1//EN" "http://www.w3.org/Graphics/SVG/1.1/DTD/svg11.dtd">
<!-- Creator: CorelDRAW 2021.5 (Evaluation Version) -->
<svg xmlns="http://www.w3.org/2000/svg" xml:space="preserve" width="100%" height="100%" version="1.1" style="shape-rendering:geometricPrecision; text-rendering:geometricPrecision; image-rendering:optimizeQuality; fill-rule:evenodd; clip-rule:evenodd"
viewBox="0 0 11000 8500"
 xmlns:xlink="http://www.w3.org/1999/xlink"
 xmlns:xodm="http://www.corel.com/coreldraw/odm/2003">
 <defs>
  <style type="text/css">
   <![CDATA[
    .str0 {stroke:#025E1C;stroke-width:41.67;stroke-miterlimit:2.61313}
    .fil1 {fill:none}
    .fil2 {fill:#007321}
    .fil0 {fill:#025E1C}
    .fil3 {fill:#2FA14F}
   ]]>
  </style>
 </defs>
 <g id="Layer_x0020_1">
  <metadata id="CorelCorpID_0Corel-Layer"/>
  <g id="_3121664273840">
   <path class="fil0" d="M4133.15 3829.56c-34.14,-20.11 -416.71,156.67 -450.56,281.89 -83.33,308.33 286.38,539.72 349.93,752.85 -110.59,-25.16 -130.05,-52.09 -225.5,-115.32 -367.09,-243.16 -577.68,-718.75 -160.51,-1027.15 204.81,-151.4 291.96,-247.74 548.74,-246.89 97.92,17.15 163.4,110.43 146.26,208.35 -17.15,97.92 -110.43,163.41 -208.35,146.26z"/>
  </g>
  <path class="fil1" d="M4164.19 3652.26c-140.92,-24.68 -310.85,127.7 -442.76,202.22 -334.9,189.2 -121.81,637.34 95.67,813.3 8.67,7.02 198.67,178.83 215.42,196.52"/>
  <g id="_3121664272736">
   <path class="fil0" d="M3881 4718.92c9.89,29.61 39.26,155.93 26.04,180.35 -12.29,0.07 -7.08,1.44 -15.95,-2.53l0.45 0.7c-85.11,-77.88 -45.01,-61.82 -94.95,-124.91 -14.8,-23.31 -7.91,-54.21 15.4,-69.01 23.31,-14.81 54.21,-7.91 69.01,15.4z"/>
  </g>
  <path class="fil1" d="M3838.8 4745.72c26.67,41.97 12.39,71.97 62.92,144.65l5.33 8.89"/>
  <g id="_3121664271536">
   <path class="fil0" d="M3899.26 4665.73c32.52,11.43 171.18,99.5 185.64,127.51 -47.94,44.44 -134.53,-23.63 -202.89,-29.01 -27.2,-4.76 -45.39,-30.68 -40.63,-57.87 4.76,-27.2 30.68,-45.39 57.87,-40.63z"/>
  </g>
  <path class="fil1" d="M3890.64 4714.98c86.47,15.14 72.8,56.99 180.83,75.91 4.48,0.78 8.95,1.57 13.43,2.35"/>
  <g id="_3121664271248">
   <path class="fil0" d="M5578.74 3858.39c33.97,-20.4 418.02,153.14 452.93,278.07 85.93,307.61 -281.81,542.12 -343.54,755.78 110.37,-26.09 129.6,-53.19 224.52,-117.22 365.02,-246.25 571.57,-723.61 151.81,-1028.46 -206.08,-149.66 -294.05,-245.27 -550.81,-242.24 -97.77,17.98 -162.46,111.81 -144.49,209.58 17.98,97.77 111.81,162.46 209.58,144.49z"/>
  </g>
  <path class="fil1" d="M5546.19 3681.36c140.7,-25.87 311.92,125.06 444.46,198.47 336.49,186.37 127.2,636.29 -88.78,814.08 -8.61,7.09 -197.15,180.51 -213.75,198.34"/>
  <g id="_3121664271584">
   <path class="fil0" d="M5831.77 4772.1c-9.65,29.7 -37.94,156.26 -24.52,180.57 12.28,-0.04 7.09,1.38 15.93,-2.66l-0.44 0.7c84.44,-78.6 44.48,-62.2 93.89,-125.71 14.61,-23.43 7.45,-54.28 -15.98,-68.88 -23.43,-14.61 -54.27,-7.45 -68.88,15.98z"/>
  </g>
  <path class="fil1" d="M5874.2 4798.56c-26.31,42.19 -11.78,72.07 -61.69,145.17l-5.26 8.94"/>
  <g id="_3121664271728">
   <path class="fil0" d="M5813.06 4719.07c-32.42,11.7 -170.33,100.94 -184.56,129.08 48.32,44.04 134.32,-24.77 202.64,-30.73 27.16,-4.99 45.13,-31.06 40.13,-58.22 -4.99,-27.16 -31.06,-45.13 -58.22,-40.13z"/>
  </g>
  <path class="fil1" d="M5822.1 4768.25c-86.33,15.87 -72.32,57.61 -180.19,77.44 -4.47,0.82 -8.94,1.64 -13.41,2.46"/>
  <g id="_3121664269376">
   <path class="fil0" d="M4165.2 6164.35c-122.44,-53.01 -240.04,-105.09 -367.75,-109.5 44,64.28 104.8,133.24 136.43,165.25l-2.41 5.44c321.1,123.13 66.61,575.94 -545.06,342.96l105.05 -40.02c56.52,-15.05 304.56,-36.19 367.91,-105.96 -158.52,-82.42 -426.06,-317.13 -380.69,-502.15 69.43,-283.17 664.66,-119.3 822.32,-67.73 86.07,37.5 125.45,137.68 87.95,223.75 -37.5,86.07 -137.68,125.45 -223.75,87.95zm-296 244.16c1.89,-3.77 3.29,-7.67 4.11,-11.69l-1.72 0.01c-2.18,3.98 -2.8,7.89 -2.39,11.68z"/>
  </g>
  <path class="fil1" d="M4233.11 6008.5c-160.46,-69.91 -429.36,-146.81 -605.54,-72.19 -87.52,37.07 200.43,376.06 280.58,393.91 118.88,26.48 90.93,238.29 -311.63,238.29 -70.04,0 -140.07,0 -210.1,0"/>
  <g id="_3121664267648">
   <path class="fil0" d="M3557.94 6634.19c-24.15,-5.32 -69.87,11.18 -119.4,9.81 14.89,-76.44 45.52,-93.18 116.93,-119.78 30.37,-0.68 55.54,23.38 56.22,53.75 0.68,30.37 -23.38,55.54 -53.75,56.22z"/>
  </g>
  <path class="fil1" d="M3556.7 6579.2c-30.08,0.67 -96.35,41.11 -118.17,64.8"/>
  <g id="_3121664269280">
   <path class="fil0" d="M3635.13 6653.97c-53.53,30.93 -23.89,19.44 -89.86,31.96 -12.34,-70.92 -15.22,-38.49 1.62,-97.64 18.14,-24.37 52.59,-29.42 76.96,-11.28 24.37,18.14 29.42,52.59 11.28,76.96z"/>
  </g>
  <path class="fil1" d="M3591.01 6621.13c-9.67,12.99 -41.7,49.11 -45.74,64.8"/>
  <g id="_3121664266064">
   <path class="fil0" d="M5631.28 6164.35c122.44,-53.01 240.04,-105.09 367.75,-109.5 -44,64.28 -104.8,133.24 -136.43,165.25l2.41 5.44c-321.1,123.13 -66.61,575.94 545.06,342.96l-105.05 -40.02c-56.52,-15.05 -304.56,-36.19 -367.91,-105.96 158.52,-82.42 426.06,-317.13 380.69,-502.15 -69.43,-283.17 -664.66,-119.3 -822.32,-67.73 -86.07,37.5 -125.45,137.68 -87.95,223.75 37.5,86.07 137.68,125.45 223.75,87.95zm296 244.16c-1.89,-3.77 -3.29,-7.67 -4.11,-11.69l1.72 0.01c2.18,3.98 2.8,7.89 2.39,11.68z"/>
  </g>
  <path class="fil1" d="M5563.37 6008.5c160.46,-69.91 429.36,-146.81 605.54,-72.19 87.52,37.07 -200.43,376.06 -280.58,393.91 -118.88,26.48 -90.93,238.29 311.63,238.29 70.04,0 140.07,0 210.1,0"/>
  <g id="_3121664266400">
   <path class="fil0" d="M6238.54 6634.19c24.15,-5.32 69.87,11.18 119.4,9.81 -14.89,-76.44 -45.52,-93.18 -116.93,-119.78 -30.37,-0.68 -55.54,23.38 -56.22,53.75 -0.68,30.37 23.38,55.54 53.75,56.22z"/>
  </g>
  <path class="fil1" d="M6239.78 6579.2c30.08,0.67 96.35,41.11 118.17,64.8"/>
  <g id="_3121664264816">
   <path class="fil0" d="M6161.35 6653.97c53.53,30.93 23.89,19.44 89.86,31.96 12.34,-70.92 15.22,-38.49 -1.62,-97.64 -18.14,-24.37 -52.59,-29.42 -76.96,-11.28 -24.37,18.14 -29.42,52.59 -11.28,76.96z"/>
  </g>
  <path class="fil1" d="M6205.47 6621.13c9.67,12.99 41.7,49.11 45.74,64.8"/>
  <path class="fil2 str0" d="M4870.72 3112.46c253.43,0 589,215.13 763.84,409.68 157.4,314.4 -20.17,753.73 -20.17,1262.73 0,438.45 151.66,907.9 41.37,1174.48 -35.94,86.87 12.66,176.45 -102.39,218.89 -182.08,67.17 -478.97,111.87 -682.65,111.87 -175.26,0 -421.07,-56.5 -614.79,-113.13 -116.11,-33.94 -137.31,-157.46 -177.94,-255.19 -115.66,-278.18 81.22,-713.82 81.22,-1174.6 0,-448.44 -128.3,-962.12 -20.17,-1262.73 179.76,-231.17 436.59,-372.02 731.67,-372.02z"/>
  <path class="fil3" d="M4903.06 3703.66c121.29,0 312.98,50.72 388.52,272.43 66.47,195.12 24.36,542.66 24.36,826.85 0,319.94 43.09,684.69 -38.84,885.57 -73.54,180.31 -266.18,213.71 -374.04,213.71 -108.66,0 -296.05,-35.05 -369.76,-217.75 -80.98,-200.7 -43.11,-563.72 -43.11,-881.54 0,-283.81 -54.02,-625.13 12.29,-820.16 75.54,-222.17 279.16,-279.12 400.59,-279.12z"/>
  <path class="fil2 str0" d="M4850.6 1369.44c351.02,0 536.59,74.46 740.55,317.64 153.16,182.61 372.3,495.81 372.3,748.28 0,305.83 -227.23,488.83 -442.63,683.2 -199.21,179.78 -374.91,382.72 -670.22,382.72 -269.45,0 -423.78,-184.49 -616.31,-337.11 -246.63,-195.51 -496.54,-398.2 -496.54,-728.81 0,-295.11 177.4,-597 379.7,-790 201.26,-192 426.64,-275.92 733.15,-275.92z"/>
 </g>
</svg>
