<?xml version="1.0" encoding="UTF-8"?>
<!DOCTYPE svg PUBLIC "-//W3C//DTD SVG 1.1//EN" "http://www.w3.org/Graphics/SVG/1.1/DTD/svg11.dtd">
<!-- Creator: CorelDRAW 2021.5 (Evaluation Version) -->
<svg xmlns="http://www.w3.org/2000/svg" xml:space="preserve" width="100%" height="100%" version="1.1" style="shape-rendering:geometricPrecision; text-rendering:geometricPrecision; image-rendering:optimizeQuality; fill-rule:evenodd; clip-rule:evenodd"
viewBox="0 0 11000 8500"
 xmlns:xlink="http://www.w3.org/1999/xlink"
 xmlns:xodm="http://www.corel.com/coreldraw/odm/2003">
 <defs>
  <style type="text/css">
   <![CDATA[
    .str0 {stroke:black;stroke-width:41.67;stroke-miterlimit:2.61313}
    .fil1 {fill:none}
    .fil2 {fill:black}
    .fil0 {fill:#FF87D7}
   ]]>
  </style>
 </defs>
 <g id="Layer_x0020_1">
  <metadata id="CorelCorpID_0Corel-Layer"/>
  <ellipse class="fil0 str0" cx="3530.58" cy="4373.11" rx="1580.43" ry="1549.59"/>
  <ellipse class="fil0 str0" cx="7669.6" cy="4373.11" rx="1580.43" ry="1549.59"/>
  <path class="fil1 str0" d="M5111 4373.11c152.6,-57.91 323.26,-84.32 484.89,-84.32 164.43,0 254.2,1.72 493.28,84.32"/>
  <g id="_3121657213312">
   <path class="fil2" d="M8588.76 3454.61c-67.32,116.04 -85.22,145.57 -97.1,166.02 79.83,-43.21 171.45,-62.69 68.79,163.6l-153.09 261.73c0,-0.01 97.55,-258.21 123.06,-362.04 -32.11,24.84 -80.96,62.04 -85.94,64.75 -186.17,101.05 51.74,-337.28 55.58,-344.89 14.04,-24.49 45.27,-32.98 69.76,-18.94 24.5,14.04 32.98,45.27 18.94,69.76zm-52.3 193.63c-0.02,-0.86 -0.07,-1.65 -0.16,-2.35 -0.08,0.79 -0.02,1.58 0.16,2.35z"/>
  </g>
  <path class="fil1" d="M8544.41 3429.2c-438.06,764.59 345.81,-349.08 -137.06,616.76"/>
 </g>
</svg>
