<?xml version="1.0" encoding="UTF-8"?>
<!DOCTYPE svg PUBLIC "-//W3C//DTD SVG 1.1//EN" "http://www.w3.org/Graphics/SVG/1.1/DTD/svg11.dtd">
<!-- Creator: CorelDRAW 2021.5 (Evaluation Version) -->
<svg xmlns="http://www.w3.org/2000/svg" xml:space="preserve" width="100%" height="100%" version="1.1" style="shape-rendering:geometricPrecision; text-rendering:geometricPrecision; image-rendering:optimizeQuality; fill-rule:evenodd; clip-rule:evenodd"
viewBox="0 0 11000 8500"
 xmlns:xlink="http://www.w3.org/1999/xlink"
 xmlns:xodm="http://www.corel.com/coreldraw/odm/2003">
 <defs>
  <style type="text/css">
   <![CDATA[
    .str0 {stroke:#A10000;stroke-width:41.67;stroke-miterlimit:2.61313}
    .fil0 {fill:#E60000}
   ]]>
  </style>
 </defs>
 <g id="Layer_x0020_1">
  <metadata id="CorelCorpID_0Corel-Layer"/>
  <path class="fil0 str0" d="M5761.76 3130.22c488.6,6.2 466.14,-132.59 864.81,-96.19 761.06,69.5 1418.11,586.15 1418.88,844.94 -475.24,61.29 -987.36,-14.75 -2318.45,-100.88 -1318.05,90.7 -1906.26,142.59 -2242.2,29.37 0,-289.9 568.1,-699.95 1452.49,-785.59 344.49,-33.35 425.35,103.29 824.46,108.35z"/>
  <path class="fil0 str0" d="M8045.46 3878.97c0,372.05 -813.71,1018.83 -2234.78,1018.83 -1421.07,0 -2325.87,-718.29 -2325.87,-1090.34 220.08,114.59 1230.74,45.25 2242.2,-29.37 983.27,59.11 1990.76,169.89 2318.45,100.88z"/>
 </g>
</svg>
