<?xml version="1.0" encoding="UTF-8"?>
<!DOCTYPE svg PUBLIC "-//W3C//DTD SVG 1.1//EN" "http://www.w3.org/Graphics/SVG/1.1/DTD/svg11.dtd">
<!-- Creator: CorelDRAW 2021.5 (Evaluation Version) -->
<svg xmlns="http://www.w3.org/2000/svg" xml:space="preserve" width="100%" height="100%" version="1.1" style="shape-rendering:geometricPrecision; text-rendering:geometricPrecision; image-rendering:optimizeQuality; fill-rule:evenodd; clip-rule:evenodd"
viewBox="0 0 11000 8500"
 xmlns:xlink="http://www.w3.org/1999/xlink"
 xmlns:xodm="http://www.corel.com/coreldraw/odm/2003">
 <defs>
  <style type="text/css">
   <![CDATA[
    .str0 {stroke:#910A0A;stroke-width:41.67;stroke-miterlimit:2.61313}
    .str1 {stroke:#910A0A;stroke-width:6.94;stroke-miterlimit:2.61313}
    .fil1 {fill:#BF0B0B}
    .fil0 {fill:#D93838}
    .fil2 {fill:white}
   ]]>
  </style>
 </defs>
 <g id="Layer_x0020_1">
  <metadata id="CorelCorpID_0Corel-Layer"/>
  <path class="fil0 str0" d="M5813.97 3078.71c1593.64,0 2470.43,-386.31 2470.43,298.68 0,684.98 -876.79,2181.87 -2470.43,2181.87 -1593.64,0 -2429.93,-1446.27 -2429.93,-2131.25 0,-684.98 836.29,-349.3 2429.93,-349.3z"/>
  <path class="fil1" d="M5813.97 5539.26c633.02,0 1091.27,-235.34 1311.61,-388.83 -140.9,-288.49 -674.55,-645.28 -1307.57,-645.28 -633.02,0 -1271.08,364.19 -1343.69,632.86 277.93,176.03 706.63,401.25 1339.65,401.25z"/>
  <polygon class="fil2 str1" points="7169.25,3023.36 6534.78,3074.09 6834.72,3776.66 "/>
  <polygon class="fil2 str1" points="4472.69,3036.85 5107.2,3078.47 4807.26,3781.04 "/>
 </g>
</svg>
