<?xml version="1.0" encoding="UTF-8"?>
<!DOCTYPE svg PUBLIC "-//W3C//DTD SVG 1.1//EN" "http://www.w3.org/Graphics/SVG/1.1/DTD/svg11.dtd">
<!-- Creator: CorelDRAW 2021.5 (Evaluation Version) -->
<svg xmlns="http://www.w3.org/2000/svg" xml:space="preserve" width="100%" height="100%" version="1.1" style="shape-rendering:geometricPrecision; text-rendering:geometricPrecision; image-rendering:optimizeQuality; fill-rule:evenodd; clip-rule:evenodd"
viewBox="0 0 11000 8500"
 xmlns:xlink="http://www.w3.org/1999/xlink"
 xmlns:xodm="http://www.corel.com/coreldraw/odm/2003">
 <defs>
  <style type="text/css">
   <![CDATA[
    .str0 {stroke:black;stroke-width:41.67;stroke-miterlimit:2.61313}
    .str2 {stroke:#786E05;stroke-width:20.83;stroke-miterlimit:2.61313}
    .str1 {stroke:black;stroke-width:6.94;stroke-miterlimit:2.61313}
    .fil1 {fill:black}
    .fil0 {fill:#451F03}
    .fil2 {fill:#EBDB28}
   ]]>
  </style>
 </defs>
 <g id="Layer_x0020_1">
  <metadata id="CorelCorpID_0Corel-Layer"/>
  <rect class="fil0 str0" x="3910.25" y="2725.76" width="2868.07" height="3222.77" rx="300" ry="300"/>
  <rect class="fil1 str1" x="4548.72" y="4063.51" width="405.38" height="770.22" rx="300" ry="414.54"/>
  <rect class="fil1 str1" x="5718.72" y="4063.51" width="405.38" height="770.22" rx="300" ry="414.54"/>
  <path class="fil2 str2" d="M5336.78 4330.09c371.55,0 672.75,272.75 672.75,609.2 0,336.45 -301.2,609.2 -672.75,609.2 -371.55,0 -672.75,-272.75 -672.75,-609.2 0,-336.45 301.2,-609.2 672.75,-609.2zm0.41 136.63c282.95,0 512.32,212.18 512.32,473.91 0,261.74 -229.37,473.91 -512.32,473.91 -282.95,0 -512.33,-212.18 -512.33,-473.91 0,-261.74 229.38,-473.91 512.33,-473.91z"/>
  <rect class="fil0" x="4954.1" y="4140.27" width="761.48" height="776.93"/>
 </g>
</svg>
