<?xml version="1.0" encoding="UTF-8"?>
<!DOCTYPE svg PUBLIC "-//W3C//DTD SVG 1.1//EN" "http://www.w3.org/Graphics/SVG/1.1/DTD/svg11.dtd">
<!-- Creator: CorelDRAW 2021.5 (Evaluation Version) -->
<svg xmlns="http://www.w3.org/2000/svg" xml:space="preserve" width="11in" height="8.5in" version="1.1" style="shape-rendering:geometricPrecision; text-rendering:geometricPrecision; image-rendering:optimizeQuality; fill-rule:evenodd; clip-rule:evenodd"
viewBox="0 0 11000 8500"
 xmlns:xlink="http://www.w3.org/1999/xlink"
 xmlns:xodm="http://www.corel.com/coreldraw/odm/2003">
 <defs>
  <style type="text/css">
   <![CDATA[
    .str0 {stroke:#4F2A04;stroke-width:41.67;stroke-miterlimit:2.61313}
    .fil1 {fill:#4F2A04}
    .fil0 {fill:#784008}
   ]]>
  </style>
 </defs>
 <g id="Layer_x0020_1">
  <metadata id="CorelCorpID_0Corel-Layer"/>
  <path class="fil0 str0" d="M5429.47 2551.64c1693.68,0 3146.62,124.8 3146.62,1220.71 0,550.09 -1126.54,494.95 -1685.3,854.36 -554.43,356.62 -537.83,1129.96 -1381.38,1129.96 -853.2,0 -861.61,-749.72 -1417.52,-1113.57 -547.63,-358.43 -1649.16,-326.91 -1649.16,-870.76 0,-1095.91 1293.06,-1220.71 2986.74,-1220.71z"/>
  <path class="fil1" d="M4445.52 4324.94c355.93,209.7 274.18,616.77 146.65,877.23 -185.6,-259.24 -195.25,-290.43 -452.63,-526 -305.26,-174.9 -359.5,-193 -642.72,-275.67 115.95,-196.81 592.76,-285.27 948.69,-75.57z"/>
  <path class="fil1" d="M6532.49 4319.91c-355.93,209.7 -274.18,616.77 -146.65,877.23 200.4,-252.66 170.57,-321.68 452.63,-526 280.58,-202.86 359.5,-193 642.72,-275.67 -115.95,-196.81 -592.76,-285.27 -948.69,-75.57z"/>
 </g>
</svg>
