<?xml version="1.0" encoding="UTF-8"?>
<!DOCTYPE svg PUBLIC "-//W3C//DTD SVG 1.1//EN" "http://www.w3.org/Graphics/SVG/1.1/DTD/svg11.dtd">
<!-- Creator: CorelDRAW 2021.5 (Evaluation Version) -->
<svg xmlns="http://www.w3.org/2000/svg" xml:space="preserve" width="11in" height="8.5in" version="1.1" style="shape-rendering:geometricPrecision; text-rendering:geometricPrecision; image-rendering:optimizeQuality; fill-rule:evenodd; clip-rule:evenodd"
viewBox="0 0 11000 8500"
 xmlns:xlink="http://www.w3.org/1999/xlink"
 xmlns:xodm="http://www.corel.com/coreldraw/odm/2003">
 <defs>
  <style type="text/css">
   <![CDATA[
    .str1 {stroke:#291404;stroke-width:41.67;stroke-miterlimit:2.61313}
    .str0 {stroke:#65CF83;stroke-width:20.83;stroke-miterlimit:2.61313}
    .fil1 {fill:#471F01}
    .fil0 {fill:#6ADE8B}
   ]]>
  </style>
 </defs>
 <g id="Layer_x0020_1">
  <metadata id="CorelCorpID_0Corel-Layer"/>
  <path class="fil0 str0" d="M6287.52 3870.35c35.6,0 113.67,-20.69 146.7,-31.7 25.91,46.06 -12.66,211.91 -12.66,284.35 0,95.04 -23.12,212.01 -59.14,191.07 -36.93,-21.47 -15.68,-44.76 -46.36,-36.68 -9.07,2.39 8.65,106.25 -28.54,98.26 -45.05,-9.68 -52.07,-326.29 -71.33,-346.51 -23.13,-24.28 -34.44,127.59 -42.57,140.06 -40.92,62.74 -82.97,38.52 -89.64,-33.2 -2.96,-31.81 -0.66,-51.79 -0.66,-64.54 0,-43.98 -17.81,-203.95 -7.33,-239.96 76.31,32.56 160.83,38.85 211.53,38.85z"/>
  <ellipse class="fil1 str1" cx="4266.1" cy="3490.25" rx="425.15" ry="374.8"/>
  <ellipse class="fil1 str1" cx="6264.06" cy="3485.58" rx="435.04" ry="383.52"/>
 </g>
</svg>
